<svg xmlns="http://www.w3.org/2000/svg" viewBox="0 0 340 200" width="340" height="200" role="img" aria-label="Commit activity bars — since 2026-03-22 for PeterGuy326">
  <title>PeterGuy326 — commit activity (since 2026-03-22)</title>
  <desc>3109 contributions across 28 weeks; peak week 320 contributions.</desc>
  <rect width="340" height="200" rx="6" ry="6" fill="#141321"/>
  <g font-family="-apple-system, BlinkMacSystemFont, 'Segoe UI', Helvetica, Arial, sans-serif">
    <text x="18" y="24" fill="#fe428e" font-size="15" font-weight="700">Commit Activity</text>
    <text x="18" y="40" fill="#8b949e" font-size="11">since 2026-03-22 · 28 weeks · peak 320 · total 3109</text>
    <rect x="18.00" y="172.00" width="9.41" height="2.00" rx="1" ry="1" fill="#161b22"><title>week of 2026-03-22: 0 contributions</title></rect><rect x="28.91" y="170.51" width="9.41" height="3.49" rx="1" ry="1" fill="#0e4429"><title>week of 2026-03-29: 9 contributions</title></rect><rect x="39.82" y="172.00" width="9.41" height="2.00" rx="1" ry="1" fill="#0e4429"><title>week of 2026-04-05: 4 contributions</title></rect><rect x="50.73" y="150.36" width="9.41" height="23.64" rx="1" ry="1" fill="#0e4429"><title>week of 2026-04-12: 61 contributions</title></rect><rect x="61.64" y="152.69" width="9.41" height="21.31" rx="1" ry="1" fill="#0e4429"><title>week of 2026-04-19: 55 contributions</title></rect><rect x="72.55" y="164.31" width="9.41" height="9.69" rx="1" ry="1" fill="#0e4429"><title>week of 2026-04-26: 25 contributions</title></rect><rect x="83.46" y="153.46" width="9.41" height="20.54" rx="1" ry="1" fill="#0e4429"><title>week of 2026-05-03: 53 contributions</title></rect><rect x="94.38" y="115.88" width="9.41" height="58.13" rx="1" ry="1" fill="#006d32"><title>week of 2026-05-10: 150 contributions</title></rect><rect x="105.29" y="141.06" width="9.41" height="32.94" rx="1" ry="1" fill="#006d32"><title>week of 2026-05-17: 85 contributions</title></rect><rect x="116.20" y="159.28" width="9.41" height="14.72" rx="1" ry="1" fill="#0e4429"><title>week of 2026-05-24: 38 contributions</title></rect><rect x="127.11" y="158.11" width="9.41" height="15.89" rx="1" ry="1" fill="#0e4429"><title>week of 2026-05-31: 41 contributions</title></rect><rect x="138.02" y="141.45" width="9.41" height="32.55" rx="1" ry="1" fill="#006d32"><title>week of 2026-06-07: 84 contributions</title></rect><rect x="148.93" y="117.43" width="9.41" height="56.57" rx="1" ry="1" fill="#006d32"><title>week of 2026-06-14: 146 contributions</title></rect><rect x="159.84" y="129.44" width="9.41" height="44.56" rx="1" ry="1" fill="#006d32"><title>week of 2026-06-21: 115 contributions</title></rect><rect x="170.75" y="149.59" width="9.41" height="24.41" rx="1" ry="1" fill="#0e4429"><title>week of 2026-06-28: 63 contributions</title></rect><rect x="181.66" y="147.65" width="9.41" height="26.35" rx="1" ry="1" fill="#0e4429"><title>week of 2026-07-05: 68 contributions</title></rect><rect x="192.57" y="98.44" width="9.41" height="75.56" rx="1" ry="1" fill="#26a641"><title>week of 2026-07-12: 195 contributions</title></rect><rect x="203.48" y="92.24" width="9.41" height="81.76" rx="1" ry="1" fill="#26a641"><title>week of 2026-07-19: 211 contributions</title></rect><rect x="214.39" y="110.06" width="9.41" height="63.94" rx="1" ry="1" fill="#26a641"><title>week of 2026-07-26: 165 contributions</title></rect><rect x="225.30" y="86.42" width="9.41" height="87.58" rx="1" ry="1" fill="#26a641"><title>week of 2026-08-02: 226 contributions</title></rect><rect x="236.21" y="110.84" width="9.41" height="63.16" rx="1" ry="1" fill="#26a641"><title>week of 2026-08-09: 163 contributions</title></rect><rect x="247.13" y="149.59" width="9.41" height="24.41" rx="1" ry="1" fill="#0e4429"><title>week of 2026-08-16: 63 contributions</title></rect><rect x="258.04" y="50.00" width="9.41" height="124.00" rx="1" ry="1" fill="#39d353"><title>week of 2026-08-23: 320 contributions</title></rect><rect x="268.95" y="53.49" width="9.41" height="120.51" rx="1" ry="1" fill="#39d353"><title>week of 2026-08-30: 311 contributions</title></rect><rect x="279.86" y="124.79" width="9.41" height="49.21" rx="1" ry="1" fill="#006d32"><title>week of 2026-09-06: 127 contributions</title></rect><rect x="290.77" y="77.13" width="9.41" height="96.88" rx="1" ry="1" fill="#39d353"><title>week of 2026-09-13: 250 contributions</title></rect><rect x="301.68" y="143.78" width="9.41" height="30.22" rx="1" ry="1" fill="#0e4429"><title>week of 2026-09-20: 78 contributions</title></rect><rect x="312.59" y="172.00" width="9.41" height="2.00" rx="1" ry="1" fill="#0e4429"><title>week of 2026-09-27: 3 contributions</title></rect>
    <text x="22.71" y="188" fill="#8b949e" font-size="9" text-anchor="middle">Mar</text><text x="44.53" y="188" fill="#8b949e" font-size="9" text-anchor="middle">Apr</text><text x="88.17" y="188" fill="#8b949e" font-size="9" text-anchor="middle">May</text><text x="142.72" y="188" fill="#8b949e" font-size="9" text-anchor="middle">Jun</text><text x="186.37" y="188" fill="#8b949e" font-size="9" text-anchor="middle">Jul</text><text x="230.01" y="188" fill="#8b949e" font-size="9" text-anchor="middle">Aug</text><text x="284.56" y="188" fill="#8b949e" font-size="9" text-anchor="middle">Sep</text>
  </g>
</svg>
