<svg xmlns="http://www.w3.org/2000/svg" viewBox="0 0 340 200" width="340" height="200" role="img" aria-label="Commit activity bars — since 2026-03-22 for PeterGuy326">
  <title>PeterGuy326 — commit activity (since 2026-03-22)</title>
  <desc>971 contributions across 17 weeks; peak week 155 contributions.</desc>
  <rect width="340" height="200" rx="6" ry="6" fill="#141321"/>
  <g font-family="-apple-system, BlinkMacSystemFont, 'Segoe UI', Helvetica, Arial, sans-serif">
    <text x="18" y="24" fill="#fe428e" font-size="15" font-weight="700">Commit Activity</text>
    <text x="18" y="40" fill="#8b949e" font-size="11">since 2026-03-22 · 17 weeks · peak 155 · total 971</text>
    <rect x="18.00" y="172.00" width="16.47" height="2.00" rx="1" ry="1" fill="#161b22"><title>week of 2026-03-22: 0 contributions</title></rect><rect x="35.97" y="166.80" width="16.47" height="7.20" rx="1" ry="1" fill="#0e4429"><title>week of 2026-03-29: 9 contributions</title></rect><rect x="53.94" y="170.80" width="16.47" height="3.20" rx="1" ry="1" fill="#0e4429"><title>week of 2026-04-05: 4 contributions</title></rect><rect x="71.91" y="125.20" width="16.47" height="48.80" rx="1" ry="1" fill="#006d32"><title>week of 2026-04-12: 61 contributions</title></rect><rect x="89.88" y="123.60" width="16.47" height="50.40" rx="1" ry="1" fill="#006d32"><title>week of 2026-04-19: 63 contributions</title></rect><rect x="107.85" y="151.60" width="16.47" height="22.40" rx="1" ry="1" fill="#0e4429"><title>week of 2026-04-26: 28 contributions</title></rect><rect x="125.82" y="130.80" width="16.47" height="43.20" rx="1" ry="1" fill="#006d32"><title>week of 2026-05-03: 54 contributions</title></rect><rect x="143.79" y="50.00" width="16.47" height="124.00" rx="1" ry="1" fill="#39d353"><title>week of 2026-05-10: 155 contributions</title></rect><rect x="161.76" y="105.20" width="16.47" height="68.80" rx="1" ry="1" fill="#26a641"><title>week of 2026-05-17: 86 contributions</title></rect><rect x="179.74" y="143.60" width="16.47" height="30.40" rx="1" ry="1" fill="#0e4429"><title>week of 2026-05-24: 38 contributions</title></rect><rect x="197.71" y="141.20" width="16.47" height="32.80" rx="1" ry="1" fill="#006d32"><title>week of 2026-05-31: 41 contributions</title></rect><rect x="215.68" y="106.80" width="16.47" height="67.20" rx="1" ry="1" fill="#26a641"><title>week of 2026-06-07: 84 contributions</title></rect><rect x="233.65" y="82.80" width="16.47" height="91.20" rx="1" ry="1" fill="#26a641"><title>week of 2026-06-14: 114 contributions</title></rect><rect x="251.62" y="90.80" width="16.47" height="83.20" rx="1" ry="1" fill="#26a641"><title>week of 2026-06-21: 104 contributions</title></rect><rect x="269.59" y="125.20" width="16.47" height="48.80" rx="1" ry="1" fill="#006d32"><title>week of 2026-06-28: 61 contributions</title></rect><rect x="287.56" y="123.60" width="16.47" height="50.40" rx="1" ry="1" fill="#006d32"><title>week of 2026-07-05: 63 contributions</title></rect><rect x="305.53" y="169.20" width="16.47" height="4.80" rx="1" ry="1" fill="#0e4429"><title>week of 2026-07-12: 6 contributions</title></rect>
    <text x="26.24" y="188" fill="#8b949e" font-size="9" text-anchor="middle">Mar</text><text x="62.18" y="188" fill="#8b949e" font-size="9" text-anchor="middle">Apr</text><text x="134.06" y="188" fill="#8b949e" font-size="9" text-anchor="middle">May</text><text x="223.91" y="188" fill="#8b949e" font-size="9" text-anchor="middle">Jun</text><text x="295.79" y="188" fill="#8b949e" font-size="9" text-anchor="middle">Jul</text>
  </g>
</svg>
