<svg xmlns="http://www.w3.org/2000/svg" viewBox="0 0 340 200" width="340" height="200" role="img" aria-label="Commit activity bars — since 2026-03-22 for PeterGuy326">
  <title>PeterGuy326 — commit activity (since 2026-03-22)</title>
  <desc>907 contributions across 16 weeks; peak week 155 contributions.</desc>
  <rect width="340" height="200" rx="6" ry="6" fill="#141321"/>
  <g font-family="-apple-system, BlinkMacSystemFont, 'Segoe UI', Helvetica, Arial, sans-serif">
    <text x="18" y="24" fill="#fe428e" font-size="15" font-weight="700">Commit Activity</text>
    <text x="18" y="40" fill="#8b949e" font-size="11">since 2026-03-22 · 16 weeks · peak 155 · total 907</text>
    <rect x="18.00" y="172.00" width="17.59" height="2.00" rx="1" ry="1" fill="#161b22"><title>week of 2026-03-22: 0 contributions</title></rect><rect x="37.09" y="166.80" width="17.59" height="7.20" rx="1" ry="1" fill="#0e4429"><title>week of 2026-03-29: 9 contributions</title></rect><rect x="56.19" y="170.80" width="17.59" height="3.20" rx="1" ry="1" fill="#0e4429"><title>week of 2026-04-05: 4 contributions</title></rect><rect x="75.28" y="125.20" width="17.59" height="48.80" rx="1" ry="1" fill="#006d32"><title>week of 2026-04-12: 61 contributions</title></rect><rect x="94.38" y="123.60" width="17.59" height="50.40" rx="1" ry="1" fill="#006d32"><title>week of 2026-04-19: 63 contributions</title></rect><rect x="113.47" y="151.60" width="17.59" height="22.40" rx="1" ry="1" fill="#0e4429"><title>week of 2026-04-26: 28 contributions</title></rect><rect x="132.56" y="130.80" width="17.59" height="43.20" rx="1" ry="1" fill="#006d32"><title>week of 2026-05-03: 54 contributions</title></rect><rect x="151.66" y="50.00" width="17.59" height="124.00" rx="1" ry="1" fill="#39d353"><title>week of 2026-05-10: 155 contributions</title></rect><rect x="170.75" y="105.20" width="17.59" height="68.80" rx="1" ry="1" fill="#26a641"><title>week of 2026-05-17: 86 contributions</title></rect><rect x="189.84" y="143.60" width="17.59" height="30.40" rx="1" ry="1" fill="#0e4429"><title>week of 2026-05-24: 38 contributions</title></rect><rect x="208.94" y="141.20" width="17.59" height="32.80" rx="1" ry="1" fill="#006d32"><title>week of 2026-05-31: 41 contributions</title></rect><rect x="228.03" y="106.80" width="17.59" height="67.20" rx="1" ry="1" fill="#26a641"><title>week of 2026-06-07: 84 contributions</title></rect><rect x="247.13" y="82.80" width="17.59" height="91.20" rx="1" ry="1" fill="#26a641"><title>week of 2026-06-14: 114 contributions</title></rect><rect x="266.22" y="90.80" width="17.59" height="83.20" rx="1" ry="1" fill="#26a641"><title>week of 2026-06-21: 104 contributions</title></rect><rect x="285.31" y="125.20" width="17.59" height="48.80" rx="1" ry="1" fill="#006d32"><title>week of 2026-06-28: 61 contributions</title></rect><rect x="304.41" y="170.00" width="17.59" height="4.00" rx="1" ry="1" fill="#0e4429"><title>week of 2026-07-05: 5 contributions</title></rect>
    <text x="26.80" y="188" fill="#8b949e" font-size="9" text-anchor="middle">Mar</text><text x="64.98" y="188" fill="#8b949e" font-size="9" text-anchor="middle">Apr</text><text x="141.36" y="188" fill="#8b949e" font-size="9" text-anchor="middle">May</text><text x="236.83" y="188" fill="#8b949e" font-size="9" text-anchor="middle">Jun</text><text x="313.20" y="188" fill="#8b949e" font-size="9" text-anchor="middle">Jul</text>
  </g>
</svg>
