<svg xmlns="http://www.w3.org/2000/svg" viewBox="0 0 340 200" width="340" height="200" role="img" aria-label="Commit activity bars — since 2026-03-22 for PeterGuy326">
  <title>PeterGuy326 — commit activity (since 2026-03-22)</title>
  <desc>1178 contributions across 18 weeks; peak week 195 contributions.</desc>
  <rect width="340" height="200" rx="6" ry="6" fill="#141321"/>
  <g font-family="-apple-system, BlinkMacSystemFont, 'Segoe UI', Helvetica, Arial, sans-serif">
    <text x="18" y="24" fill="#fe428e" font-size="15" font-weight="700">Commit Activity</text>
    <text x="18" y="40" fill="#8b949e" font-size="11">since 2026-03-22 · 18 weeks · peak 195 · total 1178</text>
    <rect x="18.00" y="172.00" width="15.47" height="2.00" rx="1" ry="1" fill="#161b22"><title>week of 2026-03-22: 0 contributions</title></rect><rect x="34.97" y="168.28" width="15.47" height="5.72" rx="1" ry="1" fill="#0e4429"><title>week of 2026-03-29: 9 contributions</title></rect><rect x="51.94" y="171.46" width="15.47" height="2.54" rx="1" ry="1" fill="#0e4429"><title>week of 2026-04-05: 4 contributions</title></rect><rect x="68.92" y="135.21" width="15.47" height="38.79" rx="1" ry="1" fill="#006d32"><title>week of 2026-04-12: 61 contributions</title></rect><rect x="85.89" y="133.94" width="15.47" height="40.06" rx="1" ry="1" fill="#006d32"><title>week of 2026-04-19: 63 contributions</title></rect><rect x="102.86" y="156.19" width="15.47" height="17.81" rx="1" ry="1" fill="#0e4429"><title>week of 2026-04-26: 28 contributions</title></rect><rect x="119.83" y="139.66" width="15.47" height="34.34" rx="1" ry="1" fill="#006d32"><title>week of 2026-05-03: 54 contributions</title></rect><rect x="136.81" y="75.44" width="15.47" height="98.56" rx="1" ry="1" fill="#39d353"><title>week of 2026-05-10: 155 contributions</title></rect><rect x="153.78" y="119.31" width="15.47" height="54.69" rx="1" ry="1" fill="#006d32"><title>week of 2026-05-17: 86 contributions</title></rect><rect x="170.75" y="149.84" width="15.47" height="24.16" rx="1" ry="1" fill="#0e4429"><title>week of 2026-05-24: 38 contributions</title></rect><rect x="187.72" y="147.93" width="15.47" height="26.07" rx="1" ry="1" fill="#0e4429"><title>week of 2026-05-31: 41 contributions</title></rect><rect x="204.69" y="120.58" width="15.47" height="53.42" rx="1" ry="1" fill="#006d32"><title>week of 2026-06-07: 84 contributions</title></rect><rect x="221.67" y="101.51" width="15.47" height="72.49" rx="1" ry="1" fill="#26a641"><title>week of 2026-06-14: 114 contributions</title></rect><rect x="238.64" y="107.87" width="15.47" height="66.13" rx="1" ry="1" fill="#26a641"><title>week of 2026-06-21: 104 contributions</title></rect><rect x="255.61" y="135.21" width="15.47" height="38.79" rx="1" ry="1" fill="#006d32"><title>week of 2026-06-28: 61 contributions</title></rect><rect x="272.58" y="130.76" width="15.47" height="43.24" rx="1" ry="1" fill="#006d32"><title>week of 2026-07-05: 68 contributions</title></rect><rect x="289.56" y="50.00" width="15.47" height="124.00" rx="1" ry="1" fill="#39d353"><title>week of 2026-07-12: 195 contributions</title></rect><rect x="306.53" y="165.73" width="15.47" height="8.27" rx="1" ry="1" fill="#0e4429"><title>week of 2026-07-19: 13 contributions</title></rect>
    <text x="25.74" y="188" fill="#8b949e" font-size="9" text-anchor="middle">Mar</text><text x="59.68" y="188" fill="#8b949e" font-size="9" text-anchor="middle">Apr</text><text x="127.57" y="188" fill="#8b949e" font-size="9" text-anchor="middle">May</text><text x="212.43" y="188" fill="#8b949e" font-size="9" text-anchor="middle">Jun</text><text x="280.32" y="188" fill="#8b949e" font-size="9" text-anchor="middle">Jul</text>
  </g>
</svg>
