<svg xmlns="http://www.w3.org/2000/svg" viewBox="0 0 340 200" width="340" height="200" role="img" aria-label="Commit activity bars — since 2026-03-22 for PeterGuy326">
  <title>PeterGuy326 — commit activity (since 2026-03-22)</title>
  <desc>674 contributions across 14 weeks; peak week 155 contributions.</desc>
  <rect width="340" height="200" rx="6" ry="6" fill="#141321"/>
  <g font-family="-apple-system, BlinkMacSystemFont, 'Segoe UI', Helvetica, Arial, sans-serif">
    <text x="18" y="24" fill="#fe428e" font-size="15" font-weight="700">Commit Activity</text>
    <text x="18" y="40" fill="#8b949e" font-size="11">since 2026-03-22 · 14 weeks · peak 155 · total 674</text>
    <rect x="18.00" y="172.00" width="20.32" height="2.00" rx="1" ry="1" fill="#161b22"><title>week of 2026-03-22: 0 contributions</title></rect><rect x="39.82" y="166.80" width="20.32" height="7.20" rx="1" ry="1" fill="#0e4429"><title>week of 2026-03-29: 9 contributions</title></rect><rect x="61.64" y="170.80" width="20.32" height="3.20" rx="1" ry="1" fill="#0e4429"><title>week of 2026-04-05: 4 contributions</title></rect><rect x="83.46" y="125.20" width="20.32" height="48.80" rx="1" ry="1" fill="#006d32"><title>week of 2026-04-12: 61 contributions</title></rect><rect x="105.29" y="123.60" width="20.32" height="50.40" rx="1" ry="1" fill="#006d32"><title>week of 2026-04-19: 63 contributions</title></rect><rect x="127.11" y="151.60" width="20.32" height="22.40" rx="1" ry="1" fill="#0e4429"><title>week of 2026-04-26: 28 contributions</title></rect><rect x="148.93" y="130.80" width="20.32" height="43.20" rx="1" ry="1" fill="#006d32"><title>week of 2026-05-03: 54 contributions</title></rect><rect x="170.75" y="50.00" width="20.32" height="124.00" rx="1" ry="1" fill="#39d353"><title>week of 2026-05-10: 155 contributions</title></rect><rect x="192.57" y="105.20" width="20.32" height="68.80" rx="1" ry="1" fill="#26a641"><title>week of 2026-05-17: 86 contributions</title></rect><rect x="214.39" y="143.60" width="20.32" height="30.40" rx="1" ry="1" fill="#0e4429"><title>week of 2026-05-24: 38 contributions</title></rect><rect x="236.21" y="142.80" width="20.32" height="31.20" rx="1" ry="1" fill="#006d32"><title>week of 2026-05-31: 39 contributions</title></rect><rect x="258.04" y="135.60" width="20.32" height="38.40" rx="1" ry="1" fill="#006d32"><title>week of 2026-06-07: 48 contributions</title></rect><rect x="279.86" y="106.00" width="20.32" height="68.00" rx="1" ry="1" fill="#26a641"><title>week of 2026-06-14: 85 contributions</title></rect><rect x="301.68" y="170.80" width="20.32" height="3.20" rx="1" ry="1" fill="#0e4429"><title>week of 2026-06-21: 4 contributions</title></rect>
    <text x="28.16" y="188" fill="#8b949e" font-size="9" text-anchor="middle">Mar</text><text x="71.80" y="188" fill="#8b949e" font-size="9" text-anchor="middle">Apr</text><text x="159.09" y="188" fill="#8b949e" font-size="9" text-anchor="middle">May</text><text x="268.20" y="188" fill="#8b949e" font-size="9" text-anchor="middle">Jun</text>
  </g>
</svg>
