<svg xmlns="http://www.w3.org/2000/svg" viewBox="0 0 340 200" width="340" height="200" role="img" aria-label="Commit activity bars — last 52 weeks for PeterGuy326">
  <title>PeterGuy326 — commit activity (last 52 weeks)</title>
  <desc>481 contributions across 52 weeks; peak week 155 contributions.</desc>
  <rect width="340" height="200" rx="6" ry="6" fill="#141321"/>
  <g font-family="-apple-system, BlinkMacSystemFont, 'Segoe UI', Helvetica, Arial, sans-serif">
    <text x="18" y="24" fill="#fe428e" font-size="15" font-weight="700">Commit Activity</text>
    <text x="18" y="40" fill="#8b949e" font-size="11">last 52 weeks · peak 155 · total 481</text>
    <rect x="18.00" y="172.00" width="4.38" height="2.00" rx="1" ry="1" fill="#161b22"><title>week of 2025-06-01: 0 contributions</title></rect><rect x="23.88" y="172.00" width="4.38" height="2.00" rx="1" ry="1" fill="#0e4429"><title>week of 2025-06-08: 2 contributions</title></rect><rect x="29.75" y="171.60" width="4.38" height="2.40" rx="1" ry="1" fill="#0e4429"><title>week of 2025-06-15: 3 contributions</title></rect><rect x="35.63" y="172.00" width="4.38" height="2.00" rx="1" ry="1" fill="#161b22"><title>week of 2025-06-22: 0 contributions</title></rect><rect x="41.50" y="172.00" width="4.38" height="2.00" rx="1" ry="1" fill="#161b22"><title>week of 2025-06-29: 0 contributions</title></rect><rect x="47.38" y="172.00" width="4.38" height="2.00" rx="1" ry="1" fill="#161b22"><title>week of 2025-07-06: 0 contributions</title></rect><rect x="53.25" y="172.00" width="4.38" height="2.00" rx="1" ry="1" fill="#161b22"><title>week of 2025-07-13: 0 contributions</title></rect><rect x="59.13" y="172.00" width="4.38" height="2.00" rx="1" ry="1" fill="#161b22"><title>week of 2025-07-20: 0 contributions</title></rect><rect x="65.00" y="172.00" width="4.38" height="2.00" rx="1" ry="1" fill="#161b22"><title>week of 2025-07-27: 0 contributions</title></rect><rect x="70.88" y="172.00" width="4.38" height="2.00" rx="1" ry="1" fill="#161b22"><title>week of 2025-08-03: 0 contributions</title></rect><rect x="76.75" y="172.00" width="4.38" height="2.00" rx="1" ry="1" fill="#161b22"><title>week of 2025-08-10: 0 contributions</title></rect><rect x="82.63" y="172.00" width="4.38" height="2.00" rx="1" ry="1" fill="#161b22"><title>week of 2025-08-17: 0 contributions</title></rect><rect x="88.50" y="172.00" width="4.38" height="2.00" rx="1" ry="1" fill="#161b22"><title>week of 2025-08-24: 0 contributions</title></rect><rect x="94.38" y="172.00" width="4.38" height="2.00" rx="1" ry="1" fill="#161b22"><title>week of 2025-08-31: 0 contributions</title></rect><rect x="100.25" y="172.00" width="4.38" height="2.00" rx="1" ry="1" fill="#161b22"><title>week of 2025-09-07: 0 contributions</title></rect><rect x="106.13" y="172.00" width="4.38" height="2.00" rx="1" ry="1" fill="#161b22"><title>week of 2025-09-14: 0 contributions</title></rect><rect x="112.00" y="172.00" width="4.38" height="2.00" rx="1" ry="1" fill="#161b22"><title>week of 2025-09-21: 0 contributions</title></rect><rect x="117.88" y="172.00" width="4.38" height="2.00" rx="1" ry="1" fill="#161b22"><title>week of 2025-09-28: 0 contributions</title></rect><rect x="123.75" y="172.00" width="4.38" height="2.00" rx="1" ry="1" fill="#161b22"><title>week of 2025-10-05: 0 contributions</title></rect><rect x="129.63" y="172.00" width="4.38" height="2.00" rx="1" ry="1" fill="#161b22"><title>week of 2025-10-12: 0 contributions</title></rect><rect x="135.50" y="172.00" width="4.38" height="2.00" rx="1" ry="1" fill="#161b22"><title>week of 2025-10-19: 0 contributions</title></rect><rect x="141.38" y="172.00" width="4.38" height="2.00" rx="1" ry="1" fill="#161b22"><title>week of 2025-10-26: 0 contributions</title></rect><rect x="147.25" y="172.00" width="4.38" height="2.00" rx="1" ry="1" fill="#161b22"><title>week of 2025-11-02: 0 contributions</title></rect><rect x="153.13" y="172.00" width="4.38" height="2.00" rx="1" ry="1" fill="#161b22"><title>week of 2025-11-09: 0 contributions</title></rect><rect x="159.00" y="172.00" width="4.38" height="2.00" rx="1" ry="1" fill="#161b22"><title>week of 2025-11-16: 0 contributions</title></rect><rect x="164.88" y="172.00" width="4.38" height="2.00" rx="1" ry="1" fill="#161b22"><title>week of 2025-11-23: 0 contributions</title></rect><rect x="170.75" y="172.00" width="4.38" height="2.00" rx="1" ry="1" fill="#161b22"><title>week of 2025-11-30: 0 contributions</title></rect><rect x="176.63" y="172.00" width="4.38" height="2.00" rx="1" ry="1" fill="#161b22"><title>week of 2025-12-07: 0 contributions</title></rect><rect x="182.50" y="172.00" width="4.38" height="2.00" rx="1" ry="1" fill="#161b22"><title>week of 2025-12-14: 0 contributions</title></rect><rect x="188.38" y="172.00" width="4.38" height="2.00" rx="1" ry="1" fill="#161b22"><title>week of 2025-12-21: 0 contributions</title></rect><rect x="194.25" y="172.00" width="4.38" height="2.00" rx="1" ry="1" fill="#161b22"><title>week of 2025-12-28: 0 contributions</title></rect><rect x="200.13" y="172.00" width="4.38" height="2.00" rx="1" ry="1" fill="#161b22"><title>week of 2026-01-04: 0 contributions</title></rect><rect x="206.00" y="172.00" width="4.38" height="2.00" rx="1" ry="1" fill="#161b22"><title>week of 2026-01-11: 0 contributions</title></rect><rect x="211.88" y="172.00" width="4.38" height="2.00" rx="1" ry="1" fill="#161b22"><title>week of 2026-01-18: 0 contributions</title></rect><rect x="217.75" y="172.00" width="4.38" height="2.00" rx="1" ry="1" fill="#161b22"><title>week of 2026-01-25: 0 contributions</title></rect><rect x="223.63" y="172.00" width="4.38" height="2.00" rx="1" ry="1" fill="#161b22"><title>week of 2026-02-01: 0 contributions</title></rect><rect x="229.50" y="172.00" width="4.38" height="2.00" rx="1" ry="1" fill="#161b22"><title>week of 2026-02-08: 0 contributions</title></rect><rect x="235.38" y="172.00" width="4.38" height="2.00" rx="1" ry="1" fill="#161b22"><title>week of 2026-02-15: 0 contributions</title></rect><rect x="241.25" y="172.00" width="4.38" height="2.00" rx="1" ry="1" fill="#161b22"><title>week of 2026-02-22: 0 contributions</title></rect><rect x="247.13" y="172.00" width="4.38" height="2.00" rx="1" ry="1" fill="#161b22"><title>week of 2026-03-01: 0 contributions</title></rect><rect x="253.00" y="172.00" width="4.38" height="2.00" rx="1" ry="1" fill="#161b22"><title>week of 2026-03-08: 0 contributions</title></rect><rect x="258.88" y="172.00" width="4.38" height="2.00" rx="1" ry="1" fill="#161b22"><title>week of 2026-03-15: 0 contributions</title></rect><rect x="264.75" y="172.00" width="4.38" height="2.00" rx="1" ry="1" fill="#161b22"><title>week of 2026-03-22: 0 contributions</title></rect><rect x="270.63" y="166.80" width="4.38" height="7.20" rx="1" ry="1" fill="#0e4429"><title>week of 2026-03-29: 9 contributions</title></rect><rect x="276.50" y="170.80" width="4.38" height="3.20" rx="1" ry="1" fill="#0e4429"><title>week of 2026-04-05: 4 contributions</title></rect><rect x="282.38" y="125.20" width="4.38" height="48.80" rx="1" ry="1" fill="#006d32"><title>week of 2026-04-12: 61 contributions</title></rect><rect x="288.25" y="123.60" width="4.38" height="50.40" rx="1" ry="1" fill="#006d32"><title>week of 2026-04-19: 63 contributions</title></rect><rect x="294.13" y="151.60" width="4.38" height="22.40" rx="1" ry="1" fill="#0e4429"><title>week of 2026-04-26: 28 contributions</title></rect><rect x="300.00" y="130.80" width="4.38" height="43.20" rx="1" ry="1" fill="#006d32"><title>week of 2026-05-03: 54 contributions</title></rect><rect x="305.88" y="50.00" width="4.38" height="124.00" rx="1" ry="1" fill="#39d353"><title>week of 2026-05-10: 155 contributions</title></rect><rect x="311.75" y="105.20" width="4.38" height="68.80" rx="1" ry="1" fill="#26a641"><title>week of 2026-05-17: 86 contributions</title></rect><rect x="317.63" y="161.20" width="4.38" height="12.80" rx="1" ry="1" fill="#0e4429"><title>week of 2026-05-24: 16 contributions</title></rect>
    <text x="20.19" y="188" fill="#8b949e" font-size="9" text-anchor="middle">Jun</text><text x="49.56" y="188" fill="#8b949e" font-size="9" text-anchor="middle">Jul</text><text x="73.06" y="188" fill="#8b949e" font-size="9" text-anchor="middle">Aug</text><text x="102.44" y="188" fill="#8b949e" font-size="9" text-anchor="middle">Sep</text><text x="125.94" y="188" fill="#8b949e" font-size="9" text-anchor="middle">Oct</text><text x="149.44" y="188" fill="#8b949e" font-size="9" text-anchor="middle">Nov</text><text x="178.81" y="188" fill="#8b949e" font-size="9" text-anchor="middle">Dec</text><text x="202.31" y="188" fill="#8b949e" font-size="9" text-anchor="middle">Jan</text><text x="225.81" y="188" fill="#8b949e" font-size="9" text-anchor="middle">Feb</text><text x="249.31" y="188" fill="#8b949e" font-size="9" text-anchor="middle">Mar</text><text x="278.69" y="188" fill="#8b949e" font-size="9" text-anchor="middle">Apr</text><text x="302.19" y="188" fill="#8b949e" font-size="9" text-anchor="middle">May</text>
  </g>
</svg>
