<svg xmlns="http://www.w3.org/2000/svg" viewBox="0 0 340 200" width="340" height="200" role="img" aria-label="Commit activity bars — since 2026-03-22 for PeterGuy326">
  <title>PeterGuy326 — commit activity (since 2026-03-22)</title>
  <desc>596 contributions across 13 weeks; peak week 155 contributions.</desc>
  <rect width="340" height="200" rx="6" ry="6" fill="#141321"/>
  <g font-family="-apple-system, BlinkMacSystemFont, 'Segoe UI', Helvetica, Arial, sans-serif">
    <text x="18" y="24" fill="#fe428e" font-size="15" font-weight="700">Commit Activity</text>
    <text x="18" y="40" fill="#8b949e" font-size="11">since 2026-03-22 · 13 weeks · peak 155 · total 596</text>
    <rect x="18.00" y="172.00" width="22.00" height="2.00" rx="1" ry="1" fill="#161b22"><title>week of 2026-03-22: 0 contributions</title></rect><rect x="41.50" y="166.80" width="22.00" height="7.20" rx="1" ry="1" fill="#0e4429"><title>week of 2026-03-29: 9 contributions</title></rect><rect x="65.00" y="170.80" width="22.00" height="3.20" rx="1" ry="1" fill="#0e4429"><title>week of 2026-04-05: 4 contributions</title></rect><rect x="88.50" y="125.20" width="22.00" height="48.80" rx="1" ry="1" fill="#006d32"><title>week of 2026-04-12: 61 contributions</title></rect><rect x="112.00" y="123.60" width="22.00" height="50.40" rx="1" ry="1" fill="#006d32"><title>week of 2026-04-19: 63 contributions</title></rect><rect x="135.50" y="151.60" width="22.00" height="22.40" rx="1" ry="1" fill="#0e4429"><title>week of 2026-04-26: 28 contributions</title></rect><rect x="159.00" y="130.80" width="22.00" height="43.20" rx="1" ry="1" fill="#006d32"><title>week of 2026-05-03: 54 contributions</title></rect><rect x="182.50" y="50.00" width="22.00" height="124.00" rx="1" ry="1" fill="#39d353"><title>week of 2026-05-10: 155 contributions</title></rect><rect x="206.00" y="105.20" width="22.00" height="68.80" rx="1" ry="1" fill="#26a641"><title>week of 2026-05-17: 86 contributions</title></rect><rect x="229.50" y="143.60" width="22.00" height="30.40" rx="1" ry="1" fill="#0e4429"><title>week of 2026-05-24: 38 contributions</title></rect><rect x="253.00" y="142.80" width="22.00" height="31.20" rx="1" ry="1" fill="#006d32"><title>week of 2026-05-31: 39 contributions</title></rect><rect x="276.50" y="135.60" width="22.00" height="38.40" rx="1" ry="1" fill="#006d32"><title>week of 2026-06-07: 48 contributions</title></rect><rect x="300.00" y="165.20" width="22.00" height="8.80" rx="1" ry="1" fill="#0e4429"><title>week of 2026-06-14: 11 contributions</title></rect>
    <text x="29.00" y="188" fill="#8b949e" font-size="9" text-anchor="middle">Mar</text><text x="76.00" y="188" fill="#8b949e" font-size="9" text-anchor="middle">Apr</text><text x="170.00" y="188" fill="#8b949e" font-size="9" text-anchor="middle">May</text><text x="287.50" y="188" fill="#8b949e" font-size="9" text-anchor="middle">Jun</text>
  </g>
</svg>
