<svg xmlns="http://www.w3.org/2000/svg" viewBox="0 0 730 520" width="730" height="520" role="img" aria-label="Productive time heatmap for PeterGuy326">
  <title>PeterGuy326 — productive time (last year, Asia/Shanghai)</title>
  <desc>Commits aggregated by weekday and hour. Peak: Sun 23:00 · 19 commits. Total commits sampled: 242.</desc>
  <rect width="730" height="520" fill="#0d1117"/>
  <g font-family="-apple-system, BlinkMacSystemFont, 'Segoe UI', Helvetica, Arial, sans-serif">
    <text x="365" y="48" fill="#ff6b9a" font-size="22" font-weight="700" text-anchor="middle">When PeterGuy326 commits</text>
    <text x="365" y="76" fill="#8b949e" font-size="14" text-anchor="middle">last year · Asia/Shanghai · peak Sun 23:00 · 19 commits</text>
    <text x="58" y="133" fill="#8b949e" font-size="14" text-anchor="end">Mon</text><text x="58" y="172" fill="#8b949e" font-size="14" text-anchor="end">Tue</text><text x="58" y="211" fill="#8b949e" font-size="14" text-anchor="end">Wed</text><text x="58" y="250" fill="#8b949e" font-size="14" text-anchor="end">Thu</text><text x="58" y="289" fill="#8b949e" font-size="14" text-anchor="end">Fri</text><text x="58" y="328" fill="#8b949e" font-size="14" text-anchor="end">Sat</text><text x="58" y="367" fill="#8b949e" font-size="14" text-anchor="end">Sun</text>
    <rect x="70" y="110" width="24" height="36" rx="3" ry="3" fill="#006d32"><title>Mon 00:00 — 7 commits</title></rect>
    <rect x="97" y="110" width="24" height="36" rx="3" ry="3" fill="#161b22"><title>Mon 01:00 — 0 commits</title></rect>
    <rect x="124" y="110" width="24" height="36" rx="3" ry="3" fill="#161b22"><title>Mon 02:00 — 0 commits</title></rect>
    <rect x="151" y="110" width="24" height="36" rx="3" ry="3" fill="#161b22"><title>Mon 03:00 — 0 commits</title></rect>
    <rect x="178" y="110" width="24" height="36" rx="3" ry="3" fill="#161b22"><title>Mon 04:00 — 0 commits</title></rect>
    <rect x="205" y="110" width="24" height="36" rx="3" ry="3" fill="#161b22"><title>Mon 05:00 — 0 commits</title></rect>
    <rect x="232" y="110" width="24" height="36" rx="3" ry="3" fill="#161b22"><title>Mon 06:00 — 0 commits</title></rect>
    <rect x="259" y="110" width="24" height="36" rx="3" ry="3" fill="#161b22"><title>Mon 07:00 — 0 commits</title></rect>
    <rect x="286" y="110" width="24" height="36" rx="3" ry="3" fill="#161b22"><title>Mon 08:00 — 0 commits</title></rect>
    <rect x="313" y="110" width="24" height="36" rx="3" ry="3" fill="#0e4429"><title>Mon 09:00 — 3 commits</title></rect>
    <rect x="340" y="110" width="24" height="36" rx="3" ry="3" fill="#0e4429"><title>Mon 10:00 — 2 commits</title></rect>
    <rect x="367" y="110" width="24" height="36" rx="3" ry="3" fill="#0e4429"><title>Mon 11:00 — 4 commits</title></rect>
    <rect x="394" y="110" width="24" height="36" rx="3" ry="3" fill="#161b22"><title>Mon 12:00 — 0 commits</title></rect>
    <rect x="421" y="110" width="24" height="36" rx="3" ry="3" fill="#0e4429"><title>Mon 13:00 — 2 commits</title></rect>
    <rect x="448" y="110" width="24" height="36" rx="3" ry="3" fill="#006d32"><title>Mon 14:00 — 9 commits</title></rect>
    <rect x="475" y="110" width="24" height="36" rx="3" ry="3" fill="#006d32"><title>Mon 15:00 — 6 commits</title></rect>
    <rect x="502" y="110" width="24" height="36" rx="3" ry="3" fill="#006d32"><title>Mon 16:00 — 7 commits</title></rect>
    <rect x="529" y="110" width="24" height="36" rx="3" ry="3" fill="#0e4429"><title>Mon 17:00 — 4 commits</title></rect>
    <rect x="556" y="110" width="24" height="36" rx="3" ry="3" fill="#0e4429"><title>Mon 18:00 — 1 commits</title></rect>
    <rect x="583" y="110" width="24" height="36" rx="3" ry="3" fill="#161b22"><title>Mon 19:00 — 0 commits</title></rect>
    <rect x="610" y="110" width="24" height="36" rx="3" ry="3" fill="#0e4429"><title>Mon 20:00 — 1 commits</title></rect>
    <rect x="637" y="110" width="24" height="36" rx="3" ry="3" fill="#161b22"><title>Mon 21:00 — 0 commits</title></rect>
    <rect x="664" y="110" width="24" height="36" rx="3" ry="3" fill="#0e4429"><title>Mon 22:00 — 2 commits</title></rect>
    <rect x="691" y="110" width="24" height="36" rx="3" ry="3" fill="#006d32"><title>Mon 23:00 — 5 commits</title></rect>
    <rect x="70" y="149" width="24" height="36" rx="3" ry="3" fill="#0e4429"><title>Tue 00:00 — 4 commits</title></rect>
    <rect x="97" y="149" width="24" height="36" rx="3" ry="3" fill="#0e4429"><title>Tue 01:00 — 1 commits</title></rect>
    <rect x="124" y="149" width="24" height="36" rx="3" ry="3" fill="#161b22"><title>Tue 02:00 — 0 commits</title></rect>
    <rect x="151" y="149" width="24" height="36" rx="3" ry="3" fill="#161b22"><title>Tue 03:00 — 0 commits</title></rect>
    <rect x="178" y="149" width="24" height="36" rx="3" ry="3" fill="#161b22"><title>Tue 04:00 — 0 commits</title></rect>
    <rect x="205" y="149" width="24" height="36" rx="3" ry="3" fill="#161b22"><title>Tue 05:00 — 0 commits</title></rect>
    <rect x="232" y="149" width="24" height="36" rx="3" ry="3" fill="#161b22"><title>Tue 06:00 — 0 commits</title></rect>
    <rect x="259" y="149" width="24" height="36" rx="3" ry="3" fill="#161b22"><title>Tue 07:00 — 0 commits</title></rect>
    <rect x="286" y="149" width="24" height="36" rx="3" ry="3" fill="#161b22"><title>Tue 08:00 — 0 commits</title></rect>
    <rect x="313" y="149" width="24" height="36" rx="3" ry="3" fill="#161b22"><title>Tue 09:00 — 0 commits</title></rect>
    <rect x="340" y="149" width="24" height="36" rx="3" ry="3" fill="#0e4429"><title>Tue 10:00 — 4 commits</title></rect>
    <rect x="367" y="149" width="24" height="36" rx="3" ry="3" fill="#006d32"><title>Tue 11:00 — 9 commits</title></rect>
    <rect x="394" y="149" width="24" height="36" rx="3" ry="3" fill="#161b22"><title>Tue 12:00 — 0 commits</title></rect>
    <rect x="421" y="149" width="24" height="36" rx="3" ry="3" fill="#161b22"><title>Tue 13:00 — 0 commits</title></rect>
    <rect x="448" y="149" width="24" height="36" rx="3" ry="3" fill="#0e4429"><title>Tue 14:00 — 1 commits</title></rect>
    <rect x="475" y="149" width="24" height="36" rx="3" ry="3" fill="#0e4429"><title>Tue 15:00 — 2 commits</title></rect>
    <rect x="502" y="149" width="24" height="36" rx="3" ry="3" fill="#26a641"><title>Tue 16:00 — 10 commits</title></rect>
    <rect x="529" y="149" width="24" height="36" rx="3" ry="3" fill="#0e4429"><title>Tue 17:00 — 2 commits</title></rect>
    <rect x="556" y="149" width="24" height="36" rx="3" ry="3" fill="#0e4429"><title>Tue 18:00 — 1 commits</title></rect>
    <rect x="583" y="149" width="24" height="36" rx="3" ry="3" fill="#161b22"><title>Tue 19:00 — 0 commits</title></rect>
    <rect x="610" y="149" width="24" height="36" rx="3" ry="3" fill="#161b22"><title>Tue 20:00 — 0 commits</title></rect>
    <rect x="637" y="149" width="24" height="36" rx="3" ry="3" fill="#161b22"><title>Tue 21:00 — 0 commits</title></rect>
    <rect x="664" y="149" width="24" height="36" rx="3" ry="3" fill="#161b22"><title>Tue 22:00 — 0 commits</title></rect>
    <rect x="691" y="149" width="24" height="36" rx="3" ry="3" fill="#0e4429"><title>Tue 23:00 — 1 commits</title></rect>
    <rect x="70" y="188" width="24" height="36" rx="3" ry="3" fill="#0e4429"><title>Wed 00:00 — 4 commits</title></rect>
    <rect x="97" y="188" width="24" height="36" rx="3" ry="3" fill="#161b22"><title>Wed 01:00 — 0 commits</title></rect>
    <rect x="124" y="188" width="24" height="36" rx="3" ry="3" fill="#161b22"><title>Wed 02:00 — 0 commits</title></rect>
    <rect x="151" y="188" width="24" height="36" rx="3" ry="3" fill="#161b22"><title>Wed 03:00 — 0 commits</title></rect>
    <rect x="178" y="188" width="24" height="36" rx="3" ry="3" fill="#161b22"><title>Wed 04:00 — 0 commits</title></rect>
    <rect x="205" y="188" width="24" height="36" rx="3" ry="3" fill="#161b22"><title>Wed 05:00 — 0 commits</title></rect>
    <rect x="232" y="188" width="24" height="36" rx="3" ry="3" fill="#161b22"><title>Wed 06:00 — 0 commits</title></rect>
    <rect x="259" y="188" width="24" height="36" rx="3" ry="3" fill="#161b22"><title>Wed 07:00 — 0 commits</title></rect>
    <rect x="286" y="188" width="24" height="36" rx="3" ry="3" fill="#161b22"><title>Wed 08:00 — 0 commits</title></rect>
    <rect x="313" y="188" width="24" height="36" rx="3" ry="3" fill="#161b22"><title>Wed 09:00 — 0 commits</title></rect>
    <rect x="340" y="188" width="24" height="36" rx="3" ry="3" fill="#161b22"><title>Wed 10:00 — 0 commits</title></rect>
    <rect x="367" y="188" width="24" height="36" rx="3" ry="3" fill="#0e4429"><title>Wed 11:00 — 2 commits</title></rect>
    <rect x="394" y="188" width="24" height="36" rx="3" ry="3" fill="#161b22"><title>Wed 12:00 — 0 commits</title></rect>
    <rect x="421" y="188" width="24" height="36" rx="3" ry="3" fill="#161b22"><title>Wed 13:00 — 0 commits</title></rect>
    <rect x="448" y="188" width="24" height="36" rx="3" ry="3" fill="#0e4429"><title>Wed 14:00 — 3 commits</title></rect>
    <rect x="475" y="188" width="24" height="36" rx="3" ry="3" fill="#006d32"><title>Wed 15:00 — 5 commits</title></rect>
    <rect x="502" y="188" width="24" height="36" rx="3" ry="3" fill="#0e4429"><title>Wed 16:00 — 4 commits</title></rect>
    <rect x="529" y="188" width="24" height="36" rx="3" ry="3" fill="#006d32"><title>Wed 17:00 — 5 commits</title></rect>
    <rect x="556" y="188" width="24" height="36" rx="3" ry="3" fill="#161b22"><title>Wed 18:00 — 0 commits</title></rect>
    <rect x="583" y="188" width="24" height="36" rx="3" ry="3" fill="#161b22"><title>Wed 19:00 — 0 commits</title></rect>
    <rect x="610" y="188" width="24" height="36" rx="3" ry="3" fill="#161b22"><title>Wed 20:00 — 0 commits</title></rect>
    <rect x="637" y="188" width="24" height="36" rx="3" ry="3" fill="#0e4429"><title>Wed 21:00 — 3 commits</title></rect>
    <rect x="664" y="188" width="24" height="36" rx="3" ry="3" fill="#0e4429"><title>Wed 22:00 — 1 commits</title></rect>
    <rect x="691" y="188" width="24" height="36" rx="3" ry="3" fill="#006d32"><title>Wed 23:00 — 9 commits</title></rect>
    <rect x="70" y="227" width="24" height="36" rx="3" ry="3" fill="#26a641"><title>Thu 00:00 — 10 commits</title></rect>
    <rect x="97" y="227" width="24" height="36" rx="3" ry="3" fill="#161b22"><title>Thu 01:00 — 0 commits</title></rect>
    <rect x="124" y="227" width="24" height="36" rx="3" ry="3" fill="#161b22"><title>Thu 02:00 — 0 commits</title></rect>
    <rect x="151" y="227" width="24" height="36" rx="3" ry="3" fill="#161b22"><title>Thu 03:00 — 0 commits</title></rect>
    <rect x="178" y="227" width="24" height="36" rx="3" ry="3" fill="#161b22"><title>Thu 04:00 — 0 commits</title></rect>
    <rect x="205" y="227" width="24" height="36" rx="3" ry="3" fill="#161b22"><title>Thu 05:00 — 0 commits</title></rect>
    <rect x="232" y="227" width="24" height="36" rx="3" ry="3" fill="#161b22"><title>Thu 06:00 — 0 commits</title></rect>
    <rect x="259" y="227" width="24" height="36" rx="3" ry="3" fill="#161b22"><title>Thu 07:00 — 0 commits</title></rect>
    <rect x="286" y="227" width="24" height="36" rx="3" ry="3" fill="#161b22"><title>Thu 08:00 — 0 commits</title></rect>
    <rect x="313" y="227" width="24" height="36" rx="3" ry="3" fill="#26a641"><title>Thu 09:00 — 11 commits</title></rect>
    <rect x="340" y="227" width="24" height="36" rx="3" ry="3" fill="#0e4429"><title>Thu 10:00 — 1 commits</title></rect>
    <rect x="367" y="227" width="24" height="36" rx="3" ry="3" fill="#161b22"><title>Thu 11:00 — 0 commits</title></rect>
    <rect x="394" y="227" width="24" height="36" rx="3" ry="3" fill="#161b22"><title>Thu 12:00 — 0 commits</title></rect>
    <rect x="421" y="227" width="24" height="36" rx="3" ry="3" fill="#161b22"><title>Thu 13:00 — 0 commits</title></rect>
    <rect x="448" y="227" width="24" height="36" rx="3" ry="3" fill="#0e4429"><title>Thu 14:00 — 2 commits</title></rect>
    <rect x="475" y="227" width="24" height="36" rx="3" ry="3" fill="#0e4429"><title>Thu 15:00 — 1 commits</title></rect>
    <rect x="502" y="227" width="24" height="36" rx="3" ry="3" fill="#161b22"><title>Thu 16:00 — 0 commits</title></rect>
    <rect x="529" y="227" width="24" height="36" rx="3" ry="3" fill="#0e4429"><title>Thu 17:00 — 1 commits</title></rect>
    <rect x="556" y="227" width="24" height="36" rx="3" ry="3" fill="#161b22"><title>Thu 18:00 — 0 commits</title></rect>
    <rect x="583" y="227" width="24" height="36" rx="3" ry="3" fill="#161b22"><title>Thu 19:00 — 0 commits</title></rect>
    <rect x="610" y="227" width="24" height="36" rx="3" ry="3" fill="#0e4429"><title>Thu 20:00 — 1 commits</title></rect>
    <rect x="637" y="227" width="24" height="36" rx="3" ry="3" fill="#0e4429"><title>Thu 21:00 — 3 commits</title></rect>
    <rect x="664" y="227" width="24" height="36" rx="3" ry="3" fill="#0e4429"><title>Thu 22:00 — 1 commits</title></rect>
    <rect x="691" y="227" width="24" height="36" rx="3" ry="3" fill="#006d32"><title>Thu 23:00 — 6 commits</title></rect>
    <rect x="70" y="266" width="24" height="36" rx="3" ry="3" fill="#0e4429"><title>Fri 00:00 — 3 commits</title></rect>
    <rect x="97" y="266" width="24" height="36" rx="3" ry="3" fill="#161b22"><title>Fri 01:00 — 0 commits</title></rect>
    <rect x="124" y="266" width="24" height="36" rx="3" ry="3" fill="#161b22"><title>Fri 02:00 — 0 commits</title></rect>
    <rect x="151" y="266" width="24" height="36" rx="3" ry="3" fill="#161b22"><title>Fri 03:00 — 0 commits</title></rect>
    <rect x="178" y="266" width="24" height="36" rx="3" ry="3" fill="#161b22"><title>Fri 04:00 — 0 commits</title></rect>
    <rect x="205" y="266" width="24" height="36" rx="3" ry="3" fill="#161b22"><title>Fri 05:00 — 0 commits</title></rect>
    <rect x="232" y="266" width="24" height="36" rx="3" ry="3" fill="#161b22"><title>Fri 06:00 — 0 commits</title></rect>
    <rect x="259" y="266" width="24" height="36" rx="3" ry="3" fill="#161b22"><title>Fri 07:00 — 0 commits</title></rect>
    <rect x="286" y="266" width="24" height="36" rx="3" ry="3" fill="#161b22"><title>Fri 08:00 — 0 commits</title></rect>
    <rect x="313" y="266" width="24" height="36" rx="3" ry="3" fill="#0e4429"><title>Fri 09:00 — 1 commits</title></rect>
    <rect x="340" y="266" width="24" height="36" rx="3" ry="3" fill="#161b22"><title>Fri 10:00 — 0 commits</title></rect>
    <rect x="367" y="266" width="24" height="36" rx="3" ry="3" fill="#161b22"><title>Fri 11:00 — 0 commits</title></rect>
    <rect x="394" y="266" width="24" height="36" rx="3" ry="3" fill="#161b22"><title>Fri 12:00 — 0 commits</title></rect>
    <rect x="421" y="266" width="24" height="36" rx="3" ry="3" fill="#0e4429"><title>Fri 13:00 — 1 commits</title></rect>
    <rect x="448" y="266" width="24" height="36" rx="3" ry="3" fill="#0e4429"><title>Fri 14:00 — 2 commits</title></rect>
    <rect x="475" y="266" width="24" height="36" rx="3" ry="3" fill="#0e4429"><title>Fri 15:00 — 4 commits</title></rect>
    <rect x="502" y="266" width="24" height="36" rx="3" ry="3" fill="#0e4429"><title>Fri 16:00 — 2 commits</title></rect>
    <rect x="529" y="266" width="24" height="36" rx="3" ry="3" fill="#0e4429"><title>Fri 17:00 — 1 commits</title></rect>
    <rect x="556" y="266" width="24" height="36" rx="3" ry="3" fill="#161b22"><title>Fri 18:00 — 0 commits</title></rect>
    <rect x="583" y="266" width="24" height="36" rx="3" ry="3" fill="#161b22"><title>Fri 19:00 — 0 commits</title></rect>
    <rect x="610" y="266" width="24" height="36" rx="3" ry="3" fill="#0e4429"><title>Fri 20:00 — 1 commits</title></rect>
    <rect x="637" y="266" width="24" height="36" rx="3" ry="3" fill="#161b22"><title>Fri 21:00 — 0 commits</title></rect>
    <rect x="664" y="266" width="24" height="36" rx="3" ry="3" fill="#161b22"><title>Fri 22:00 — 0 commits</title></rect>
    <rect x="691" y="266" width="24" height="36" rx="3" ry="3" fill="#006d32"><title>Fri 23:00 — 8 commits</title></rect>
    <rect x="70" y="305" width="24" height="36" rx="3" ry="3" fill="#0e4429"><title>Sat 00:00 — 2 commits</title></rect>
    <rect x="97" y="305" width="24" height="36" rx="3" ry="3" fill="#161b22"><title>Sat 01:00 — 0 commits</title></rect>
    <rect x="124" y="305" width="24" height="36" rx="3" ry="3" fill="#161b22"><title>Sat 02:00 — 0 commits</title></rect>
    <rect x="151" y="305" width="24" height="36" rx="3" ry="3" fill="#161b22"><title>Sat 03:00 — 0 commits</title></rect>
    <rect x="178" y="305" width="24" height="36" rx="3" ry="3" fill="#161b22"><title>Sat 04:00 — 0 commits</title></rect>
    <rect x="205" y="305" width="24" height="36" rx="3" ry="3" fill="#161b22"><title>Sat 05:00 — 0 commits</title></rect>
    <rect x="232" y="305" width="24" height="36" rx="3" ry="3" fill="#161b22"><title>Sat 06:00 — 0 commits</title></rect>
    <rect x="259" y="305" width="24" height="36" rx="3" ry="3" fill="#161b22"><title>Sat 07:00 — 0 commits</title></rect>
    <rect x="286" y="305" width="24" height="36" rx="3" ry="3" fill="#161b22"><title>Sat 08:00 — 0 commits</title></rect>
    <rect x="313" y="305" width="24" height="36" rx="3" ry="3" fill="#0e4429"><title>Sat 09:00 — 1 commits</title></rect>
    <rect x="340" y="305" width="24" height="36" rx="3" ry="3" fill="#161b22"><title>Sat 10:00 — 0 commits</title></rect>
    <rect x="367" y="305" width="24" height="36" rx="3" ry="3" fill="#0e4429"><title>Sat 11:00 — 2 commits</title></rect>
    <rect x="394" y="305" width="24" height="36" rx="3" ry="3" fill="#161b22"><title>Sat 12:00 — 0 commits</title></rect>
    <rect x="421" y="305" width="24" height="36" rx="3" ry="3" fill="#0e4429"><title>Sat 13:00 — 2 commits</title></rect>
    <rect x="448" y="305" width="24" height="36" rx="3" ry="3" fill="#0e4429"><title>Sat 14:00 — 3 commits</title></rect>
    <rect x="475" y="305" width="24" height="36" rx="3" ry="3" fill="#161b22"><title>Sat 15:00 — 0 commits</title></rect>
    <rect x="502" y="305" width="24" height="36" rx="3" ry="3" fill="#161b22"><title>Sat 16:00 — 0 commits</title></rect>
    <rect x="529" y="305" width="24" height="36" rx="3" ry="3" fill="#161b22"><title>Sat 17:00 — 0 commits</title></rect>
    <rect x="556" y="305" width="24" height="36" rx="3" ry="3" fill="#161b22"><title>Sat 18:00 — 0 commits</title></rect>
    <rect x="583" y="305" width="24" height="36" rx="3" ry="3" fill="#161b22"><title>Sat 19:00 — 0 commits</title></rect>
    <rect x="610" y="305" width="24" height="36" rx="3" ry="3" fill="#0e4429"><title>Sat 20:00 — 1 commits</title></rect>
    <rect x="637" y="305" width="24" height="36" rx="3" ry="3" fill="#161b22"><title>Sat 21:00 — 0 commits</title></rect>
    <rect x="664" y="305" width="24" height="36" rx="3" ry="3" fill="#161b22"><title>Sat 22:00 — 0 commits</title></rect>
    <rect x="691" y="305" width="24" height="36" rx="3" ry="3" fill="#0e4429"><title>Sat 23:00 — 1 commits</title></rect>
    <rect x="70" y="344" width="24" height="36" rx="3" ry="3" fill="#0e4429"><title>Sun 00:00 — 2 commits</title></rect>
    <rect x="97" y="344" width="24" height="36" rx="3" ry="3" fill="#0e4429"><title>Sun 01:00 — 3 commits</title></rect>
    <rect x="124" y="344" width="24" height="36" rx="3" ry="3" fill="#161b22"><title>Sun 02:00 — 0 commits</title></rect>
    <rect x="151" y="344" width="24" height="36" rx="3" ry="3" fill="#161b22"><title>Sun 03:00 — 0 commits</title></rect>
    <rect x="178" y="344" width="24" height="36" rx="3" ry="3" fill="#161b22"><title>Sun 04:00 — 0 commits</title></rect>
    <rect x="205" y="344" width="24" height="36" rx="3" ry="3" fill="#161b22"><title>Sun 05:00 — 0 commits</title></rect>
    <rect x="232" y="344" width="24" height="36" rx="3" ry="3" fill="#161b22"><title>Sun 06:00 — 0 commits</title></rect>
    <rect x="259" y="344" width="24" height="36" rx="3" ry="3" fill="#161b22"><title>Sun 07:00 — 0 commits</title></rect>
    <rect x="286" y="344" width="24" height="36" rx="3" ry="3" fill="#161b22"><title>Sun 08:00 — 0 commits</title></rect>
    <rect x="313" y="344" width="24" height="36" rx="3" ry="3" fill="#161b22"><title>Sun 09:00 — 0 commits</title></rect>
    <rect x="340" y="344" width="24" height="36" rx="3" ry="3" fill="#0e4429"><title>Sun 10:00 — 1 commits</title></rect>
    <rect x="367" y="344" width="24" height="36" rx="3" ry="3" fill="#006d32"><title>Sun 11:00 — 5 commits</title></rect>
    <rect x="394" y="344" width="24" height="36" rx="3" ry="3" fill="#161b22"><title>Sun 12:00 — 0 commits</title></rect>
    <rect x="421" y="344" width="24" height="36" rx="3" ry="3" fill="#0e4429"><title>Sun 13:00 — 1 commits</title></rect>
    <rect x="448" y="344" width="24" height="36" rx="3" ry="3" fill="#0e4429"><title>Sun 14:00 — 4 commits</title></rect>
    <rect x="475" y="344" width="24" height="36" rx="3" ry="3" fill="#161b22"><title>Sun 15:00 — 0 commits</title></rect>
    <rect x="502" y="344" width="24" height="36" rx="3" ry="3" fill="#0e4429"><title>Sun 16:00 — 1 commits</title></rect>
    <rect x="529" y="344" width="24" height="36" rx="3" ry="3" fill="#006d32"><title>Sun 17:00 — 5 commits</title></rect>
    <rect x="556" y="344" width="24" height="36" rx="3" ry="3" fill="#161b22"><title>Sun 18:00 — 0 commits</title></rect>
    <rect x="583" y="344" width="24" height="36" rx="3" ry="3" fill="#161b22"><title>Sun 19:00 — 0 commits</title></rect>
    <rect x="610" y="344" width="24" height="36" rx="3" ry="3" fill="#161b22"><title>Sun 20:00 — 0 commits</title></rect>
    <rect x="637" y="344" width="24" height="36" rx="3" ry="3" fill="#0e4429"><title>Sun 21:00 — 2 commits</title></rect>
    <rect x="664" y="344" width="24" height="36" rx="3" ry="3" fill="#0e4429"><title>Sun 22:00 — 3 commits</title></rect>
    <rect x="691" y="344" width="24" height="36" rx="3" ry="3" fill="#39d353"><title>Sun 23:00 — 19 commits</title></rect>
    <text x="82" y="401" fill="#8b949e" font-size="13" text-anchor="middle">00</text><text x="163" y="401" fill="#8b949e" font-size="13" text-anchor="middle">03</text><text x="244" y="401" fill="#8b949e" font-size="13" text-anchor="middle">06</text><text x="325" y="401" fill="#8b949e" font-size="13" text-anchor="middle">09</text><text x="406" y="401" fill="#8b949e" font-size="13" text-anchor="middle">12</text><text x="487" y="401" fill="#8b949e" font-size="13" text-anchor="middle">15</text><text x="568" y="401" fill="#8b949e" font-size="13" text-anchor="middle">18</text><text x="649" y="401" fill="#8b949e" font-size="13" text-anchor="middle">21</text>
    <text x="406" y="425" fill="#8b949e" font-size="13" text-anchor="middle">hour of day</text>
    <text x="568" y="455" fill="#8b949e" font-size="13" text-anchor="end">less</text>
    <rect x="578" y="443" width="16" height="16" rx="3" ry="3" fill="#161b22"/><rect x="598" y="443" width="16" height="16" rx="3" ry="3" fill="#0e4429"/><rect x="618" y="443" width="16" height="16" rx="3" ry="3" fill="#006d32"/><rect x="638" y="443" width="16" height="16" rx="3" ry="3" fill="#26a641"/><rect x="658" y="443" width="16" height="16" rx="3" ry="3" fill="#39d353"/>
    <text x="684" y="455" fill="#8b949e" font-size="13">more</text>
  </g>
</svg>
